<svg width="32" height="32" viewBox="0 0 32 32" fill="none" xmlns="http://www.w3.org/2000/svg">
<path d="M12.054 21.2217C11.2169 21.2217 10.5082 20.9316 9.928 20.3513C9.34777 19.7711 9.05766 19.0626 9.05766 18.2257C9.05766 17.3888 9.34777 16.6802 9.928 16.1C10.5082 15.5196 11.2169 15.2293 12.054 15.2293C12.8909 15.2293 13.5994 15.5196 14.1797 16.1C14.7599 16.6802 15.05 17.3888 15.05 18.2257C15.05 19.0626 14.7599 19.7711 14.1797 20.3513C13.5994 20.9316 12.8909 21.2217 12.054 21.2217ZM7.18166 28.3973C6.55166 28.3973 6.01544 28.1761 5.573 27.7337C5.13033 27.291 4.909 26.7547 4.909 26.1247V8.48801C4.909 7.85801 5.13033 7.32178 5.573 6.87934C6.01544 6.43667 6.55266 6.21534 7.18466 6.21534H9.16533V3.395H11.082V6.21534H20.9693V3.395H22.8347V6.21534H24.8153C25.4473 6.21534 25.9846 6.43667 26.427 6.87934C26.8697 7.32178 27.091 7.85801 27.091 8.48801V26.1247C27.091 26.7547 26.8697 27.291 26.427 27.7337C25.9846 28.1761 25.4483 28.3973 24.8183 28.3973H7.18166ZM7.18466 26.532H24.8153C24.918 26.532 25.012 26.4893 25.0973 26.404C25.1829 26.3185 25.2257 26.2243 25.2257 26.1217V13.7973H6.77433V26.1217C6.77433 26.2243 6.81711 26.3185 6.90266 26.404C6.988 26.4893 7.082 26.532 7.18466 26.532ZM6.77433 11.932H25.2257V8.491C25.2257 8.38856 25.1829 8.29456 25.0973 8.20901C25.012 8.12345 24.918 8.08067 24.8153 8.08067H7.18466C7.082 8.08067 6.988 8.12345 6.90266 8.20901C6.81711 8.29456 6.77433 8.38856 6.77433 8.491V11.932Z" fill="#7C7C7C"/>
</svg>
