<svg width="32" height="32" viewBox="0 0 32 32" fill="none" xmlns="http://www.w3.org/2000/svg">
<path d="M7.18166 28.3973C6.55166 28.3973 6.01544 28.1761 5.573 27.7337C5.13033 27.291 4.909 26.7547 4.909 26.1247V8.48801C4.909 7.85801 5.13033 7.32178 5.573 6.87934C6.01544 6.43667 6.55266 6.21534 7.18466 6.21534H9.16533V3.395H11.082V6.21534H20.9693V3.395H22.8347V6.21534H24.8153C25.4473 6.21534 25.9846 6.43667 26.427 6.87934C26.8697 7.32178 27.091 7.85801 27.091 8.48801V26.1247C27.091 26.7547 26.8697 27.291 26.427 27.7337C25.9846 28.1761 25.4483 28.3973 24.8183 28.3973H7.18166ZM7.18466 26.532H24.8153C24.918 26.532 25.012 26.4893 25.0973 26.404C25.1829 26.3185 25.2257 26.2243 25.2257 26.1217V13.7973H6.77433V26.1217C6.77433 26.2243 6.81711 26.3185 6.90266 26.404C6.988 26.4893 7.082 26.532 7.18466 26.532ZM6.77433 11.932H25.2257V8.491C25.2257 8.38856 25.1829 8.29456 25.0973 8.20901C25.012 8.12345 24.918 8.08067 24.8153 8.08067H7.18466C7.082 8.08067 6.988 8.12345 6.90266 8.20901C6.81711 8.29456 6.77433 8.38856 6.77433 8.491V11.932ZM16.0017 18.7423C15.681 18.7423 15.4084 18.6308 15.184 18.4077C14.9596 18.1843 14.8473 17.9123 14.8473 17.5917C14.8473 17.2708 14.959 16.9981 15.1823 16.7737C15.4054 16.5494 15.6774 16.4373 15.9983 16.4373C16.319 16.4373 16.5916 16.5489 16.816 16.772C17.0404 16.9951 17.1527 17.2671 17.1527 17.588C17.1527 17.9089 17.041 18.1815 16.8177 18.4057C16.5946 18.6301 16.3226 18.7423 16.0017 18.7423ZM10.6683 18.7423C10.3477 18.7423 10.0751 18.6308 9.85066 18.4077C9.62622 18.1843 9.514 17.9123 9.514 17.5917C9.514 17.2708 9.62566 16.9981 9.849 16.7737C10.0721 16.5494 10.3441 16.4373 10.665 16.4373C10.9857 16.4373 11.2582 16.5489 11.4827 16.772C11.7071 16.9951 11.8193 17.2671 11.8193 17.588C11.8193 17.9089 11.7077 18.1815 11.4843 18.4057C11.2612 18.6301 10.9892 18.7423 10.6683 18.7423ZM21.335 18.7423C21.0143 18.7423 20.7418 18.6308 20.5173 18.4077C20.2929 18.1843 20.1807 17.9123 20.1807 17.5917C20.1807 17.2708 20.2923 16.9981 20.5157 16.7737C20.7388 16.5494 21.0108 16.4373 21.3317 16.4373C21.6523 16.4373 21.9249 16.5489 22.1493 16.772C22.3738 16.9951 22.486 17.2671 22.486 17.588C22.486 17.9089 22.3743 18.1815 22.151 18.4057C21.9279 18.6301 21.6559 18.7423 21.335 18.7423ZM16.0017 23.973C15.681 23.973 15.4084 23.8615 15.184 23.6383C14.9596 23.4152 14.8473 23.1432 14.8473 22.8223C14.8473 22.5015 14.959 22.2289 15.1823 22.0047C15.4054 21.7802 15.6774 21.668 15.9983 21.668C16.319 21.668 16.5916 21.7796 16.816 22.0027C17.0404 22.226 17.1527 22.498 17.1527 22.8187C17.1527 23.1396 17.041 23.4122 16.8177 23.6367C16.5946 23.8609 16.3226 23.973 16.0017 23.973ZM10.6683 23.973C10.3477 23.973 10.0751 23.8615 9.85066 23.6383C9.62622 23.4152 9.514 23.1432 9.514 22.8223C9.514 22.5015 9.62566 22.2289 9.849 22.0047C10.0721 21.7802 10.3441 21.668 10.665 21.668C10.9857 21.668 11.2582 21.7796 11.4827 22.0027C11.7071 22.226 11.8193 22.498 11.8193 22.8187C11.8193 23.1396 11.7077 23.4122 11.4843 23.6367C11.2612 23.8609 10.9892 23.973 10.6683 23.973ZM21.335 23.973C21.0143 23.973 20.7418 23.8615 20.5173 23.6383C20.2929 23.4152 20.1807 23.1432 20.1807 22.8223C20.1807 22.5015 20.2923 22.2289 20.5157 22.0047C20.7388 21.7802 21.0108 21.668 21.3317 21.668C21.6523 21.668 21.9249 21.7796 22.1493 22.0027C22.3738 22.226 22.486 22.498 22.486 22.8187C22.486 23.1396 22.3743 23.4122 22.151 23.6367C21.9279 23.8609 21.6559 23.973 21.335 23.973Z" fill="#9D4EDD"/>
</svg>
