<svg width="32" height="32" viewBox="0 0 32 32" fill="none" xmlns="http://www.w3.org/2000/svg">
<path d="M13.0744 28.3973L12.5667 24.4173C12.1982 24.2971 11.813 24.1266 11.411 23.9057C11.0088 23.6848 10.6592 23.4512 10.3624 23.205L6.70002 24.741L3.75769 19.623L6.95769 17.2077C6.9228 17.0168 6.89991 16.8268 6.88902 16.6377C6.87836 16.4486 6.87302 16.2402 6.87302 16.0127C6.87302 15.8409 6.88113 15.6527 6.89736 15.448C6.9138 15.2433 6.93736 15.0068 6.96802 14.7383L3.75769 12.3437L6.70002 7.27833L10.395 8.82833C10.6984 8.57789 11.0342 8.346 11.4027 8.13267C11.7709 7.91956 12.1547 7.73989 12.554 7.59367L13.0744 3.57567H18.932L19.4397 7.56933C19.8535 7.72133 20.225 7.89722 20.5544 8.097C20.8839 8.29656 21.2137 8.54033 21.5437 8.82833L25.3064 7.27833L28.2487 12.3437L24.9167 14.832C24.9602 15.0464 24.9852 15.24 24.9917 15.4127C24.9981 15.5853 25.0014 15.78 25.0014 15.9967C25.0014 16.2049 24.997 16.3997 24.9884 16.581C24.9799 16.7623 24.9526 16.9703 24.9064 17.205L28.186 19.623L25.2437 24.741L21.5437 23.1653C21.2386 23.4218 20.9215 23.6479 20.5924 23.8437C20.2632 24.0392 19.879 24.2259 19.4397 24.4037L18.932 28.3973H13.0744ZM14.675 26.532H17.2617L17.7594 22.9437C18.4198 22.7659 19.0181 22.5206 19.5544 22.2077C20.0908 21.8948 20.615 21.4811 21.127 20.9667L24.4564 22.386L25.7527 20.1493L22.8334 17.9667C22.9334 17.6213 23.0045 17.2881 23.0467 16.967C23.0891 16.6457 23.1104 16.3222 23.1104 15.9967C23.1104 15.6587 23.0919 15.3389 23.055 15.0373C23.0184 14.7356 22.9445 14.4094 22.8334 14.059L25.7784 11.827L24.509 9.58733L21.104 11.027C20.7005 10.5859 20.1871 10.1824 19.564 9.81667C18.9409 9.45089 18.3341 9.19533 17.7437 9.05L17.3247 5.441H14.6874L14.2627 9.02733C13.5602 9.19889 12.9435 9.43422 12.4124 9.73333C11.881 10.0324 11.3415 10.4526 10.7937 10.9937L7.49736 9.58733L6.19502 11.827L9.06402 13.9563C8.95291 14.2906 8.87514 14.6244 8.83069 14.958C8.78625 15.2916 8.76402 15.6372 8.76402 15.995C8.76402 16.329 8.78347 16.6571 8.82236 16.9793C8.86125 17.3016 8.93202 17.6397 9.03469 17.9937L6.19502 20.146L7.49736 22.386L10.7707 20.986C11.3014 21.5167 11.844 21.9389 12.3987 22.2527C12.9534 22.5662 13.5695 22.8063 14.247 22.973L14.675 26.532ZM15.956 19.8653C17.0265 19.8653 17.9375 19.489 18.689 18.7363C19.4408 17.9839 19.8167 17.0713 19.8167 15.9987C19.8167 14.926 19.4405 14.0139 18.688 13.2623C17.9358 12.5106 17.0236 12.1347 15.9514 12.1347C14.8709 12.1347 13.9566 12.511 13.2084 13.2637C12.4601 14.0161 12.086 14.9287 12.086 16.0013C12.086 17.074 12.4601 17.9861 13.2084 18.7377C13.9566 19.4894 14.8725 19.8653 15.956 19.8653Z" fill="#7C7C7C"/>
</svg>
