<svg width="207" height="63" viewBox="0 0 207 63" fill="none" xmlns="http://www.w3.org/2000/svg">
<path d="M23.125 3.15625V48.6562H13.7812V3.15625H23.125ZM37.125 3.15625V10.5H0V3.15625H37.125Z" fill="url(#paint0_linear_10_19)"/>
<path d="M55.4062 41.0312V25.9688C55.4062 24.8854 55.2292 23.9583 54.875 23.1875C54.5208 22.3958 53.9688 21.7812 53.2188 21.3438C52.4896 20.9062 51.5417 20.6875 50.375 20.6875C49.375 20.6875 48.5104 20.8646 47.7812 21.2188C47.0521 21.5521 46.4896 22.0417 46.0938 22.6875C45.6979 23.3125 45.5 24.0521 45.5 24.9062H36.5C36.5 23.4688 36.8333 22.1042 37.5 20.8125C38.1667 19.5208 39.1354 18.3854 40.4062 17.4062C41.6771 16.4062 43.1875 15.625 44.9375 15.0625C46.7083 14.5 48.6875 14.2188 50.875 14.2188C53.5 14.2188 55.8333 14.6562 57.875 15.5312C59.9167 16.4062 61.5208 17.7188 62.6875 19.4688C63.875 21.2188 64.4688 23.4062 64.4688 26.0312V40.5C64.4688 42.3542 64.5833 43.875 64.8125 45.0625C65.0417 46.2292 65.375 47.25 65.8125 48.125V48.6562H56.7188C56.2812 47.7396 55.9479 46.5938 55.7188 45.2188C55.5104 43.8229 55.4062 42.4271 55.4062 41.0312ZM56.5938 28.0625L56.6562 33.1562H51.625C50.4375 33.1562 49.4062 33.2917 48.5312 33.5625C47.6562 33.8333 46.9375 34.2188 46.375 34.7188C45.8125 35.1979 45.3958 35.7604 45.125 36.4062C44.875 37.0521 44.75 37.7604 44.75 38.5312C44.75 39.3021 44.9271 40 45.2812 40.625C45.6354 41.2292 46.1458 41.7083 46.8125 42.0625C47.4792 42.3958 48.2604 42.5625 49.1562 42.5625C50.5104 42.5625 51.6875 42.2917 52.6875 41.75C53.6875 41.2083 54.4583 40.5417 55 39.75C55.5625 38.9583 55.8542 38.2083 55.875 37.5L58.25 41.3125C57.9167 42.1667 57.4583 43.0521 56.875 43.9688C56.3125 44.8854 55.5938 45.75 54.7188 46.5625C53.8438 47.3542 52.7917 48.0104 51.5625 48.5312C50.3333 49.0312 48.875 49.2812 47.1875 49.2812C45.0417 49.2812 43.0938 48.8542 41.3438 48C39.6146 47.125 38.2396 45.9271 37.2188 44.4062C36.2188 42.8646 35.7188 41.1146 35.7188 39.1562C35.7188 37.3854 36.0521 35.8125 36.7188 34.4375C37.3854 33.0625 38.3646 31.9062 39.6562 30.9688C40.9688 30.0104 42.6042 29.2917 44.5625 28.8125C46.5208 28.3125 48.7917 28.0625 51.375 28.0625H56.5938Z" fill="url(#paint1_linear_10_19)"/>
<path d="M89.6875 39.3125C89.6875 38.6667 89.5 38.0833 89.125 37.5625C88.75 37.0417 88.0521 36.5625 87.0312 36.125C86.0312 35.6667 84.5833 35.25 82.6875 34.875C80.9792 34.5 79.3854 34.0312 77.9062 33.4688C76.4479 32.8854 75.1771 32.1875 74.0938 31.375C73.0312 30.5625 72.1979 29.6042 71.5938 28.5C70.9896 27.375 70.6875 26.0938 70.6875 24.6562C70.6875 23.2396 70.9896 21.9062 71.5938 20.6562C72.2188 19.4062 73.1042 18.3021 74.25 17.3438C75.4167 16.3646 76.8333 15.6042 78.5 15.0625C80.1875 14.5 82.0833 14.2188 84.1875 14.2188C87.125 14.2188 89.6458 14.6875 91.75 15.625C93.875 16.5625 95.5 17.8542 96.625 19.5C97.7708 21.125 98.3438 22.9792 98.3438 25.0625H89.3438C89.3438 24.1875 89.1562 23.4062 88.7812 22.7188C88.4271 22.0104 87.8646 21.4583 87.0938 21.0625C86.3438 20.6458 85.3646 20.4375 84.1562 20.4375C83.1562 20.4375 82.2917 20.6146 81.5625 20.9688C80.8333 21.3021 80.2708 21.7604 79.875 22.3438C79.5 22.9062 79.3125 23.5312 79.3125 24.2188C79.3125 24.7396 79.4167 25.2083 79.625 25.625C79.8542 26.0208 80.2188 26.3854 80.7188 26.7188C81.2188 27.0521 81.8646 27.3646 82.6562 27.6562C83.4688 27.9271 84.4688 28.1771 85.6562 28.4062C88.0938 28.9062 90.2708 29.5625 92.1875 30.375C94.1042 31.1667 95.625 32.25 96.75 33.625C97.875 34.9792 98.4375 36.7604 98.4375 38.9688C98.4375 40.4688 98.1042 41.8438 97.4375 43.0938C96.7708 44.3438 95.8125 45.4375 94.5625 46.375C93.3125 47.2917 91.8125 48.0104 90.0625 48.5312C88.3333 49.0312 86.3854 49.2812 84.2188 49.2812C81.0729 49.2812 78.4062 48.7188 76.2188 47.5938C74.0521 46.4688 72.4062 45.0417 71.2812 43.3125C70.1771 41.5625 69.625 39.7708 69.625 37.9375H78.1562C78.1979 39.1667 78.5104 40.1562 79.0938 40.9062C79.6979 41.6562 80.4583 42.1979 81.375 42.5312C82.3125 42.8646 83.3229 43.0312 84.4062 43.0312C85.5729 43.0312 86.5417 42.875 87.3125 42.5625C88.0833 42.2292 88.6667 41.7917 89.0625 41.25C89.4792 40.6875 89.6875 40.0417 89.6875 39.3125Z" fill="url(#paint2_linear_10_19)"/>
<path d="M113.281 0.625V48.6562H104.281V0.625H113.281ZM134.594 14.8438L119.906 31.5938L112.031 39.5625L108.75 33.0625L115 25.125L123.781 14.8438H134.594ZM125.25 48.6562L115.25 33.0312L121.469 27.5938L135.625 48.6562H125.25Z" fill="url(#paint3_linear_10_19)"/>
<path d="M147.969 14.8438V48.6562H138.938V14.8438H147.969ZM138.375 6.03125C138.375 4.71875 138.833 3.63542 139.75 2.78125C140.667 1.92708 141.896 1.5 143.438 1.5C144.958 1.5 146.177 1.92708 147.094 2.78125C148.031 3.63542 148.5 4.71875 148.5 6.03125C148.5 7.34375 148.031 8.42708 147.094 9.28125C146.177 10.1354 144.958 10.5625 143.438 10.5625C141.896 10.5625 140.667 10.1354 139.75 9.28125C138.833 8.42708 138.375 7.34375 138.375 6.03125Z" fill="url(#paint4_linear_10_19)"/>
<path d="M166.875 48.6562H157.812V11.8438C157.812 9.28125 158.312 7.125 159.312 5.375C160.333 3.60417 161.76 2.27083 163.594 1.375C165.448 0.458333 167.646 0 170.188 0C171.021 0 171.823 0.0625 172.594 0.1875C173.365 0.291667 174.115 0.427083 174.844 0.59375L174.75 7.375C174.354 7.27083 173.938 7.19792 173.5 7.15625C173.062 7.11458 172.552 7.09375 171.969 7.09375C170.885 7.09375 169.958 7.28125 169.188 7.65625C168.438 8.01042 167.865 8.54167 167.469 9.25C167.073 9.95833 166.875 10.8229 166.875 11.8438V48.6562ZM173.625 14.8438V21.2188H152.781V14.8438H173.625Z" fill="url(#paint5_linear_10_19)"/>
<path d="M188.375 44.8438L197.344 14.8438H207L193.406 53.75C193.115 54.6042 192.719 55.5208 192.219 56.5C191.74 57.4792 191.083 58.4062 190.25 59.2812C189.438 60.1771 188.406 60.9062 187.156 61.4688C185.927 62.0312 184.417 62.3125 182.625 62.3125C181.771 62.3125 181.073 62.2604 180.531 62.1562C179.99 62.0521 14.5312 60.8438 13.7812 60.6562L178.594 55.125C178.823 55.125 179.062 55.125 179.312 55.125C179.562 55.1458 179.802 55.1562 180.031 55.1562C181.219 55.1562 182.188 55.0208 182.938 54.75C183.688 54.4792 184.292 54.0625 184.75 53.5C185.208 52.9583 185.573 52.25 185.844 51.375L188.375 44.8438ZM184.625 14.8438L191.969 39.3438L193.25 48.875L187.125 49.5312L174.969 14.8438H184.625Z" fill="url(#paint6_linear_10_19)"/>
<defs>
<linearGradient id="paint0_linear_10_19" x1="0" y1="31.1562" x2="207" y2="31.1562" gradientUnits="userSpaceOnUse">
<stop stop-color="#00B4D8"/>
<stop offset="1" stop-color="#9D4EDD"/>
</linearGradient>
<linearGradient id="paint1_linear_10_19" x1="0" y1="31.1562" x2="207" y2="31.1562" gradientUnits="userSpaceOnUse">
<stop stop-color="#00B4D8"/>
<stop offset="1" stop-color="#9D4EDD"/>
</linearGradient>
<linearGradient id="paint2_linear_10_19" x1="0" y1="31.1562" x2="207" y2="31.1562" gradientUnits="userSpaceOnUse">
<stop stop-color="#00B4D8"/>
<stop offset="1" stop-color="#9D4EDD"/>
</linearGradient>
<linearGradient id="paint3_linear_10_19" x1="0" y1="31.1562" x2="207" y2="31.1562" gradientUnits="userSpaceOnUse">
<stop stop-color="#00B4D8"/>
<stop offset="1" stop-color="#9D4EDD"/>
</linearGradient>
<linearGradient id="paint4_linear_10_19" x1="0" y1="31.1562" x2="207" y2="31.1562" gradientUnits="userSpaceOnUse">
<stop stop-color="#00B4D8"/>
<stop offset="1" stop-color="#9D4EDD"/>
</linearGradient>
<linearGradient id="paint5_linear_10_19" x1="0" y1="31.1562" x2="207" y2="31.1562" gradientUnits="userSpaceOnUse">
<stop stop-color="#00B4D8"/>
<stop offset="1" stop-color="#9D4EDD"/>
</linearGradient>
<linearGradient id="paint6_linear_10_19" x1="0" y1="31.1562" x2="207" y2="31.1562" gradientUnits="userSpaceOnUse">
<stop stop-color="#00B4D8"/>
<stop offset="1" stop-color="#9D4EDD"/>
</linearGradient>
</defs>
</svg>
