<svg width="24" height="26" viewBox="0 0 24 26" fill="none" xmlns="http://www.w3.org/2000/svg">
<path d="M8.054 18.2217C7.21689 18.2217 6.50822 17.9316 5.928 17.3513C5.34777 16.7711 5.05766 16.0626 5.05766 15.2257C5.05766 14.3888 5.34777 13.6802 5.928 13.1C6.50822 12.5196 7.21689 12.2293 8.054 12.2293C8.89089 12.2293 9.59944 12.5196 10.1797 13.1C10.7599 13.6802 11.05 14.3888 11.05 15.2257C11.05 16.0626 10.7599 16.7711 10.1797 17.3513C9.59944 17.9316 8.89089 18.2217 8.054 18.2217ZM3.18166 25.3973C2.55166 25.3973 2.01544 25.1761 1.573 24.7337C1.13033 24.291 0.908997 23.7547 0.908997 23.1247V5.48801C0.908997 4.85801 1.13033 4.32178 1.573 3.87934C2.01544 3.43667 2.55266 3.21534 3.18466 3.21534H5.16533V0.395004H7.082V3.21534H16.9693V0.395004H18.8347V3.21534H20.8153C21.4473 3.21534 21.9846 3.43667 22.427 3.87934C22.8697 4.32178 23.091 4.85801 23.091 5.48801V23.1247C23.091 23.7547 22.8697 24.291 22.427 24.7337C21.9846 25.1761 21.4483 25.3973 20.8183 25.3973H3.18166ZM3.18466 23.532H20.8153C20.918 23.532 21.012 23.4893 21.0973 23.404C21.1829 23.3185 21.2257 23.2243 21.2257 23.1217V10.7973H2.77433V23.1217C2.77433 23.2243 2.81711 23.3185 2.90266 23.404C2.988 23.4893 3.082 23.532 3.18466 23.532ZM2.77433 8.93201H21.2257V5.491C21.2257 5.38856 21.1829 5.29456 21.0973 5.20901C21.012 5.12345 20.918 5.08067 20.8153 5.08067H3.18466C3.082 5.08067 2.988 5.12345 2.90266 5.20901C2.81711 5.29456 2.77433 5.38856 2.77433 5.491V8.93201Z" fill="#7C7C7C"/>
</svg>
