<svg width="24" height="26" viewBox="0 0 24 26" fill="none" xmlns="http://www.w3.org/2000/svg">
<path d="M3.18166 25.3973C2.55166 25.3973 2.01544 25.1761 1.573 24.7337C1.13033 24.291 0.908997 23.7547 0.908997 23.1247V5.48801C0.908997 4.85801 1.13033 4.32178 1.573 3.87934C2.01544 3.43667 2.55266 3.21534 3.18466 3.21534H5.16533V0.395004H7.082V3.21534H16.9693V0.395004H18.8347V3.21534H20.8153C21.4473 3.21534 21.9846 3.43667 22.427 3.87934C22.8697 4.32178 23.091 4.85801 23.091 5.48801V23.1247C23.091 23.7547 22.8697 24.291 22.427 24.7337C21.9846 25.1761 21.4483 25.3973 20.8183 25.3973H3.18166ZM3.18466 23.532H20.8153C20.918 23.532 21.012 23.4893 21.0973 23.404C21.1829 23.3185 21.2257 23.2243 21.2257 23.1217V10.7973H2.77433V23.1217C2.77433 23.2243 2.81711 23.3185 2.90266 23.404C2.988 23.4893 3.082 23.532 3.18466 23.532ZM2.77433 8.93201H21.2257V5.491C21.2257 5.38856 21.1829 5.29456 21.0973 5.20901C21.012 5.12345 20.918 5.08067 20.8153 5.08067H3.18466C3.082 5.08067 2.988 5.12345 2.90266 5.20901C2.81711 5.29456 2.77433 5.38856 2.77433 5.491V8.93201ZM12.0017 15.7423C11.681 15.7423 11.4084 15.6308 11.184 15.4077C10.9596 15.1843 10.8473 14.9123 10.8473 14.5917C10.8473 14.2708 10.959 13.9981 11.1823 13.7737C11.4054 13.5494 11.6774 13.4373 11.9983 13.4373C12.319 13.4373 12.5916 13.5489 12.816 13.772C13.0404 13.9951 13.1527 14.2671 13.1527 14.588C13.1527 14.9089 13.041 15.1815 12.8177 15.4057C12.5946 15.6301 12.3226 15.7423 12.0017 15.7423ZM6.66833 15.7423C6.34766 15.7423 6.07511 15.6308 5.85066 15.4077C5.62622 15.1843 5.514 14.9123 5.514 14.5917C5.514 14.2708 5.62566 13.9981 5.849 13.7737C6.07211 13.5494 6.34411 13.4373 6.665 13.4373C6.98566 13.4373 7.25822 13.5489 7.48266 13.772C7.70711 13.9951 7.81933 14.2671 7.81933 14.588C7.81933 14.9089 7.70766 15.1815 7.48433 15.4057C7.26122 15.6301 6.98922 15.7423 6.66833 15.7423ZM17.335 15.7423C17.0143 15.7423 16.7418 15.6308 16.5173 15.4077C16.2929 15.1843 16.1807 14.9123 16.1807 14.5917C16.1807 14.2708 16.2923 13.9981 16.5157 13.7737C16.7388 13.5494 17.0108 13.4373 17.3317 13.4373C17.6523 13.4373 17.9249 13.5489 18.1493 13.772C18.3738 13.9951 18.486 14.2671 18.486 14.588C18.486 14.9089 18.3743 15.1815 18.151 15.4057C17.9279 15.6301 17.6559 15.7423 17.335 15.7423ZM12.0017 20.973C11.681 20.973 11.4084 20.8615 11.184 20.6383C10.9596 20.4152 10.8473 20.1432 10.8473 19.8223C10.8473 19.5015 10.959 19.2289 11.1823 19.0047C11.4054 18.7802 11.6774 18.668 11.9983 18.668C12.319 18.668 12.5916 18.7796 12.816 19.0027C13.0404 19.226 13.1527 19.498 13.1527 19.8187C13.1527 20.1396 13.041 20.4122 12.8177 20.6367C12.5946 20.8609 12.3226 20.973 12.0017 20.973ZM6.66833 20.973C6.34766 20.973 6.07511 20.8615 5.85066 20.6383C5.62622 20.4152 5.514 20.1432 5.514 19.8223C5.514 19.5015 5.62566 19.2289 5.849 19.0047C6.07211 18.7802 6.34411 18.668 6.665 18.668C6.98566 18.668 7.25822 18.7796 7.48266 19.0027C7.70711 19.226 7.81933 19.498 7.81933 19.8187C7.81933 20.1396 7.70766 20.4122 7.48433 20.6367C7.26122 20.8609 6.98922 20.973 6.66833 20.973ZM17.335 20.973C17.0143 20.973 16.7418 20.8615 16.5173 20.6383C16.2929 20.4152 16.1807 20.1432 16.1807 19.8223C16.1807 19.5015 16.2923 19.2289 16.5157 19.0047C16.7388 18.7802 17.0108 18.668 17.3317 18.668C17.6523 18.668 17.9249 18.7796 18.1493 19.0027C18.3738 19.226 18.486 19.498 18.486 19.8187C18.486 20.1396 18.3743 20.4122 18.151 20.6367C17.9279 20.8609 17.6559 20.973 17.335 20.973Z" fill="#7C7C7C"/>
</svg>
