<svg width="26" height="26" viewBox="0 0 26 26" fill="none" xmlns="http://www.w3.org/2000/svg">
<path d="M10.0744 25.3973L9.56669 21.4173C9.19825 21.2971 8.81302 21.1266 8.41102 20.9057C8.0088 20.6848 7.65925 20.4512 7.36236 20.205L3.70002 21.741L0.75769 16.623L3.95769 14.2077C3.9228 14.0168 3.89991 13.8268 3.88902 13.6377C3.87836 13.4486 3.87302 13.2402 3.87302 13.0127C3.87302 12.8409 3.88113 12.6527 3.89736 12.448C3.9138 12.2433 3.93736 12.0068 3.96802 11.7383L0.75769 9.34367L3.70002 4.27833L7.39502 5.82833C7.69836 5.57789 8.03425 5.346 8.40269 5.13267C8.77091 4.91956 9.15469 4.73989 9.55402 4.59367L10.0744 0.575668H15.932L16.4397 4.56933C16.8535 4.72133 17.225 4.89722 17.5544 5.097C17.8839 5.29656 18.2137 5.54033 18.5437 5.82833L22.3064 4.27833L25.2487 9.34367L21.9167 11.832C21.9602 12.0464 21.9852 12.24 21.9917 12.4127C21.9981 12.5853 22.0014 12.78 22.0014 12.9967C22.0014 13.2049 21.997 13.3997 21.9884 13.581C21.9799 13.7623 21.9526 13.9703 21.9064 14.205L25.186 16.623L22.2437 21.741L18.5437 20.1653C18.2386 20.4218 17.9215 20.6479 17.5924 20.8437C17.2632 21.0392 16.879 21.2259 16.4397 21.4037L15.932 25.3973H10.0744ZM11.675 23.532H14.2617L14.7594 19.9437C15.4198 19.7659 16.0181 19.5206 16.5544 19.2077C17.0908 18.8948 17.615 18.4811 18.127 17.9667L21.4564 19.386L22.7527 17.1493L19.8334 14.9667C19.9334 14.6213 20.0045 14.2881 20.0467 13.967C20.0891 13.6457 20.1104 13.3222 20.1104 12.9967C20.1104 12.6587 20.0919 12.3389 20.055 12.0373C20.0184 11.7356 19.9445 11.4094 19.8334 11.059L22.7784 8.827L21.509 6.58733L18.104 8.027C17.7005 7.58589 17.1871 7.18245 16.564 6.81667C15.9409 6.45089 15.3341 6.19533 14.7437 6.05L14.3247 2.441H11.6874L11.2627 6.02733C10.5602 6.19889 9.94347 6.43422 9.41236 6.73333C8.88102 7.03245 8.34147 7.45256 7.79369 7.99367L4.49736 6.58733L3.19502 8.827L6.06402 10.9563C5.95291 11.2906 5.87514 11.6244 5.83069 11.958C5.78625 12.2916 5.76402 12.6372 5.76402 12.995C5.76402 13.329 5.78347 13.6571 5.82236 13.9793C5.86125 14.3016 5.93202 14.6397 6.03469 14.9937L3.19502 17.146L4.49736 19.386L7.77069 17.986C8.30136 18.5167 8.84402 18.9389 9.39869 19.2527C9.95336 19.5662 10.5695 19.8063 11.247 19.973L11.675 23.532ZM12.956 16.8653C14.0265 16.8653 14.9375 16.489 15.689 15.7363C16.4408 14.9839 16.8167 14.0713 16.8167 12.9987C16.8167 11.926 16.4405 11.0139 15.688 10.2623C14.9358 9.51056 14.0236 9.13467 12.9514 9.13467C11.8709 9.13467 10.9566 9.511 10.2084 10.2637C9.46013 11.0161 9.08602 11.9287 9.08602 13.0013C9.08602 14.074 9.46013 14.9861 10.2084 15.7377C10.9566 16.4894 11.8725 16.8653 12.956 16.8653Z" fill="#7C7C7C"/>
</svg>
